<mxfile host="app.diagrams.net" modified="2023-08-21T21:14:51.044Z" agent="Mozilla/5.0 (Windows NT 10.0; Win64; x64) AppleWebKit/537.36 (KHTML, like Gecko) Chrome/115.0.0.0 Safari/537.36 Edg/115.0.1901.203" etag="qsZKFJ5Zsz51pIhpmTmM" version="21.6.8" type="device">
  <diagram name="Page-1" id="QMfyuoMQl1xUIQRaa-dy">
    <mxGraphModel dx="1125" dy="788" grid="1" gridSize="10" guides="1" tooltips="1" connect="1" arrows="1" fold="1" page="1" pageScale="1" pageWidth="3300" pageHeight="4681" math="0" shadow="0">
      <root>
        <mxCell id="0" />
        <mxCell id="1" parent="0" />
        <mxCell id="lKqO5cnzOSZIgqLOtQtV-1" value="" style="rounded=0;whiteSpace=wrap;html=1;" vertex="1" parent="1">
          <mxGeometry x="30" y="250" width="170" height="330" as="geometry" />
        </mxCell>
        <mxCell id="lKqO5cnzOSZIgqLOtQtV-2" value="tcp-accept" style="rounded=0;whiteSpace=wrap;html=1;" vertex="1" parent="1">
          <mxGeometry x="55" y="260" width="120" height="60" as="geometry" />
        </mxCell>
        <mxCell id="lKqO5cnzOSZIgqLOtQtV-3" value="tcp-ready-for-reading" style="rounded=0;whiteSpace=wrap;html=1;" vertex="1" parent="1">
          <mxGeometry x="55" y="400" width="120" height="60" as="geometry" />
        </mxCell>
        <mxCell id="lKqO5cnzOSZIgqLOtQtV-4" value="tcp-ready-for-writing" style="rounded=0;whiteSpace=wrap;html=1;" vertex="1" parent="1">
          <mxGeometry x="55" y="330" width="120" height="60" as="geometry" />
        </mxCell>
        <mxCell id="lKqO5cnzOSZIgqLOtQtV-5" value="stream-message" style="rounded=0;whiteSpace=wrap;html=1;" vertex="1" parent="1">
          <mxGeometry x="330" y="320" width="120" height="60" as="geometry" />
        </mxCell>
        <mxCell id="lKqO5cnzOSZIgqLOtQtV-8" value="read-message" style="rounded=0;whiteSpace=wrap;html=1;" vertex="1" parent="1">
          <mxGeometry x="210" y="410" width="120" height="60" as="geometry" />
        </mxCell>
      </root>
    </mxGraphModel>
  </diagram>
</mxfile>
